{
	"asset":
	{
		"version": "2.0",
		"generator": "Unreal Engine 5.5.4"
	},
	"scene": 0,
	"accessors": [
		{
			"bufferView": 0,
			"count": 288,
			"type": "SCALAR",
			"componentType": 5121
		},
		{
			"bufferView": 1,
			"count": 90,
			"type": "VEC3",
			"componentType": 5126,
			"min": [ -5.00000286, -0.500000298, -4.99999905 ],
			"max": [ 5, 3.06161647e-16, 5.00000048 ]
		},
		{
			"bufferView": 2,
			"count": 90,
			"type": "VEC3",
			"componentType": 5126
		},
		{
			"bufferView": 3,
			"count": 90,
			"type": "VEC4",
			"componentType": 5126
		},
		{
			"bufferView": 4,
			"count": 90,
			"type": "VEC2",
			"componentType": 5126
		},
		{
			"bufferView": 5,
			"count": 90,
			"type": "VEC2",
			"componentType": 5126
		},
		{
			"bufferView": 6,
			"count": 41712,
			"type": "SCALAR",
			"componentType": 5123
		},
		{
			"bufferView": 7,
			"count": 41553,
			"type": "VEC3",
			"componentType": 5126,
			"min": [ -2.06040931, -0.120947875, -1.45454955 ],
			"max": [ 2.05883789, 1.56783509, 1.45454967 ]
		},
		{
			"bufferView": 8,
			"count": 41553,
			"type": "VEC3",
			"componentType": 5126
		},
		{
			"bufferView": 9,
			"count": 41553,
			"type": "VEC4",
			"componentType": 5126
		},
		{
			"bufferView": 10,
			"count": 41553,
			"type": "VEC2",
			"componentType": 5126
		},
		{
			"bufferView": 11,
			"count": 47832,
			"type": "SCALAR",
			"componentType": 5123
		},
		{
			"bufferView": 12,
			"count": 47597,
			"type": "VEC3",
			"componentType": 5126,
			"min": [ -1.45961022, -0.161162719, -1.87560523 ],
			"max": [ 1.45961022, 1.85191488, 1.87560511 ]
		},
		{
			"bufferView": 13,
			"count": 47597,
			"type": "VEC3",
			"componentType": 5126
		},
		{
			"bufferView": 14,
			"count": 47597,
			"type": "VEC4",
			"componentType": 5126
		},
		{
			"bufferView": 15,
			"count": 47597,
			"type": "VEC2",
			"componentType": 5126
		},
		{
			"bufferView": 16,
			"count": 29886,
			"type": "SCALAR",
			"componentType": 5123
		},
		{
			"bufferView": 17,
			"count": 29749,
			"type": "VEC3",
			"componentType": 5126,
			"min": [ -1.26383018, -0.148636475, -1.33417749 ],
			"max": [ 0.83102262, 2.23886323, 0.98944968 ]
		},
		{
			"bufferView": 18,
			"count": 29749,
			"type": "VEC3",
			"componentType": 5126
		},
		{
			"bufferView": 19,
			"count": 29749,
			"type": "VEC4",
			"componentType": 5126
		},
		{
			"bufferView": 20,
			"count": 29749,
			"type": "VEC2",
			"componentType": 5126
		},
		{
			"bufferView": 21,
			"count": 74742,
			"type": "SCALAR",
			"componentType": 5125
		},
		{
			"bufferView": 22,
			"count": 74448,
			"type": "VEC3",
			"componentType": 5126,
			"min": [ -1.63438809, -0.168743894, -1.20352101 ],
			"max": [ 1.69470215, 1.60960448, 1.263538 ]
		},
		{
			"bufferView": 23,
			"count": 74448,
			"type": "VEC3",
			"componentType": 5126
		},
		{
			"bufferView": 24,
			"count": 74448,
			"type": "VEC4",
			"componentType": 5126
		},
		{
			"bufferView": 25,
			"count": 74448,
			"type": "VEC2",
			"componentType": 5126
		},
		{
			"bufferView": 26,
			"count": 74796,
			"type": "SCALAR",
			"componentType": 5125
		},
		{
			"bufferView": 27,
			"count": 74487,
			"type": "VEC3",
			"componentType": 5126,
			"min": [ -1.86818111, -0.228259876, -1.63662457 ],
			"max": [ 1.80958009, 1.66757286, 1.52154934 ]
		},
		{
			"bufferView": 28,
			"count": 74487,
			"type": "VEC3",
			"componentType": 5126
		},
		{
			"bufferView": 29,
			"count": 74487,
			"type": "VEC4",
			"componentType": 5126
		},
		{
			"bufferView": 30,
			"count": 74487,
			"type": "VEC2",
			"componentType": 5126
		},
		{
			"bufferView": 31,
			"count": 35808,
			"type": "SCALAR",
			"componentType": 5123
		},
		{
			"bufferView": 32,
			"count": 35653,
			"type": "VEC3",
			"componentType": 5126,
			"min": [ -1.71114254, -0.273714602, -1.27677178 ],
			"max": [ 1.71114016, 1.86960173, 1.27677178 ]
		},
		{
			"bufferView": 33,
			"count": 35653,
			"type": "VEC3",
			"componentType": 5126
		},
		{
			"bufferView": 34,
			"count": 35653,
			"type": "VEC4",
			"componentType": 5126
		},
		{
			"bufferView": 35,
			"count": 35653,
			"type": "VEC2",
			"componentType": 5126
		},
		{
			"bufferView": 36,
			"count": 59844,
			"type": "SCALAR",
			"componentType": 5123
		},
		{
			"bufferView": 37,
			"count": 59634,
			"type": "VEC3",
			"componentType": 5126,
			"min": [ -1.68231702, -0.573346376, -1.21300888 ],
			"max": [ 1.68231702, 1.73471737, 1.21300888 ]
		},
		{
			"bufferView": 38,
			"count": 59634,
			"type": "VEC3",
			"componentType": 5126
		},
		{
			"bufferView": 39,
			"count": 59634,
			"type": "VEC4",
			"componentType": 5126
		},
		{
			"bufferView": 40,
			"count": 59634,
			"type": "VEC2",
			"componentType": 5126
		}
	],
	"buffers": [
		{
			"uri": "Subway.bin",
			"byteLength": 18463452
		}
	],
	"bufferViews": [
		{
			"buffer": 0,
			"byteLength": 288,
			"target": 34963
		},
		{
			"buffer": 0,
			"byteLength": 1080,
			"byteOffset": 288,
			"target": 34962
		},
		{
			"buffer": 0,
			"byteLength": 1080,
			"byteOffset": 1368,
			"target": 34962
		},
		{
			"buffer": 0,
			"byteLength": 1440,
			"byteOffset": 2448,
			"target": 34962
		},
		{
			"buffer": 0,
			"byteLength": 720,
			"byteOffset": 3888,
			"target": 34962
		},
		{
			"buffer": 0,
			"byteLength": 720,
			"byteOffset": 4608,
			"target": 34962
		},
		{
			"buffer": 0,
			"byteLength": 83424,
			"byteOffset": 5328,
			"target": 34963
		},
		{
			"buffer": 0,
			"byteLength": 498636,
			"byteOffset": 88752,
			"target": 34962
		},
		{
			"buffer": 0,
			"byteLength": 498636,
			"byteOffset": 587388,
			"target": 34962
		},
		{
			"buffer": 0,
			"byteLength": 664848,
			"byteOffset": 1086024,
			"target": 34962
		},
		{
			"buffer": 0,
			"byteLength": 332424,
			"byteOffset": 1750872,
			"target": 34962
		},
		{
			"buffer": 0,
			"byteLength": 95664,
			"byteOffset": 2083296,
			"target": 34963
		},
		{
			"buffer": 0,
			"byteLength": 571164,
			"byteOffset": 2178960,
			"target": 34962
		},
		{
			"buffer": 0,
			"byteLength": 571164,
			"byteOffset": 2750124,
			"target": 34962
		},
		{
			"buffer": 0,
			"byteLength": 761552,
			"byteOffset": 3321288,
			"target": 34962
		},
		{
			"buffer": 0,
			"byteLength": 380776,
			"byteOffset": 4082840,
			"target": 34962
		},
		{
			"buffer": 0,
			"byteLength": 59772,
			"byteOffset": 4463616,
			"target": 34963
		},
		{
			"buffer": 0,
			"byteLength": 356988,
			"byteOffset": 4523388,
			"target": 34962
		},
		{
			"buffer": 0,
			"byteLength": 356988,
			"byteOffset": 4880376,
			"target": 34962
		},
		{
			"buffer": 0,
			"byteLength": 475984,
			"byteOffset": 5237364,
			"target": 34962
		},
		{
			"buffer": 0,
			"byteLength": 237992,
			"byteOffset": 5713348,
			"target": 34962
		},
		{
			"buffer": 0,
			"byteLength": 298968,
			"byteOffset": 5951340,
			"target": 34963
		},
		{
			"buffer": 0,
			"byteLength": 893376,
			"byteOffset": 6250308,
			"target": 34962
		},
		{
			"buffer": 0,
			"byteLength": 893376,
			"byteOffset": 7143684,
			"target": 34962
		},
		{
			"buffer": 0,
			"byteLength": 1191168,
			"byteOffset": 8037060,
			"target": 34962
		},
		{
			"buffer": 0,
			"byteLength": 595584,
			"byteOffset": 9228228,
			"target": 34962
		},
		{
			"buffer": 0,
			"byteLength": 299184,
			"byteOffset": 9823812,
			"target": 34963
		},
		{
			"buffer": 0,
			"byteLength": 893844,
			"byteOffset": 10122996,
			"target": 34962
		},
		{
			"buffer": 0,
			"byteLength": 893844,
			"byteOffset": 11016840,
			"target": 34962
		},
		{
			"buffer": 0,
			"byteLength": 1191792,
			"byteOffset": 11910684,
			"target": 34962
		},
		{
			"buffer": 0,
			"byteLength": 595896,
			"byteOffset": 13102476,
			"target": 34962
		},
		{
			"buffer": 0,
			"byteLength": 71616,
			"byteOffset": 13698372,
			"target": 34963
		},
		{
			"buffer": 0,
			"byteLength": 427836,
			"byteOffset": 13769988,
			"target": 34962
		},
		{
			"buffer": 0,
			"byteLength": 427836,
			"byteOffset": 14197824,
			"target": 34962
		},
		{
			"buffer": 0,
			"byteLength": 570448,
			"byteOffset": 14625660,
			"target": 34962
		},
		{
			"buffer": 0,
			"byteLength": 285224,
			"byteOffset": 15196108,
			"target": 34962
		},
		{
			"buffer": 0,
			"byteLength": 119688,
			"byteOffset": 15481332,
			"target": 34963
		},
		{
			"buffer": 0,
			"byteLength": 715608,
			"byteOffset": 15601020,
			"target": 34962
		},
		{
			"buffer": 0,
			"byteLength": 715608,
			"byteOffset": 16316628,
			"target": 34962
		},
		{
			"buffer": 0,
			"byteLength": 954144,
			"byteOffset": 17032236,
			"target": 34962
		},
		{
			"buffer": 0,
			"byteLength": 477072,
			"byteOffset": 17986380,
			"target": 34962
		}
	],
	"images": [
		{
			"uri": "MI_ProcGrid_Floor_BaseColor.png"
		},
		{
			"uri": "MI_ProcGrid_Floor_MetallicRoughness.png"
		},
		{
			"uri": "MI_Rock_01_BaseColor.png"
		},
		{
			"uri": "MI_Rock_01_MetallicRoughness.png"
		},
		{
			"uri": "MI_Rock_01_Normal.png"
		},
		{
			"uri": "MI_Rock_02_BaseColor.png"
		},
		{
			"uri": "MI_Rock_02_MetallicRoughness.png"
		},
		{
			"uri": "MI_Rock_02_Normal.png"
		},
		{
			"uri": "MI_Rock_03_BaseColor.png"
		},
		{
			"uri": "MI_Rock_03_MetallicRoughness.png"
		},
		{
			"uri": "MI_Rock_03_Normal.png"
		},
		{
			"uri": "MI_Rock_04_BaseColor.png"
		},
		{
			"uri": "MI_Rock_04_MetallicRoughness.png"
		},
		{
			"uri": "MI_Rock_04_Normal.png"
		},
		{
			"uri": "MI_Rock_05_BaseColor.png"
		},
		{
			"uri": "MI_Rock_05_MetallicRoughness.png"
		},
		{
			"uri": "MI_Rock_05_Normal.png"
		},
		{
			"uri": "MI_Rock_06_BaseColor.png"
		},
		{
			"uri": "MI_Rock_06_MetallicRoughness.png"
		},
		{
			"uri": "MI_Rock_06_Normal.png"
		},
		{
			"uri": "MI_Rock_07_BaseColor.png"
		},
		{
			"uri": "MI_Rock_07_MetallicRoughness.png"
		},
		{
			"uri": "MI_Rock_07_Normal.png"
		},
		{
			"uri": "T_Rock_01_ORM.png"
		},
		{
			"uri": "T_Rock_02_ORM.png"
		},
		{
			"uri": "T_Rock_03_ORM.png"
		},
		{
			"uri": "T_Rock_04_ORM.png"
		},
		{
			"uri": "T_Rock_05_ORM.png"
		},
		{
			"uri": "T_Rock_06_ORM.png"
		},
		{
			"uri": "T_Rock_07_ORM.png"
		}
	],
	"materials": [
		{
			"name": "MI_ProcGrid_Floor",
			"pbrMetallicRoughness":
			{
				"baseColorTexture":
				{
					"index": 0,
					"texCoord": 1,
					"extensions":
					{
						"KHR_texture_transform":
						{
							"offset": [ -0.0102010621, -0.0102010621 ],
							"scale": [ 1.02066684, 1.02066684 ]
						}
					}
				},
				"metallicRoughnessTexture":
				{
					"index": 1,
					"texCoord": 1,
					"extensions":
					{
						"KHR_texture_transform":
						{
							"offset": [ -0.0102010621, -0.0102010621 ],
							"scale": [ 1.02066684, 1.02066684 ]
						}
					}
				}
			},
			"extensions":
			{
				"KHR_materials_specular":
				{
					"specularFactor": 0.498039246
				}
			}
		},
		{
			"name": "MI_Rock_01",
			"pbrMetallicRoughness":
			{
				"baseColorTexture":
				{
					"index": 2
				},
				"metallicRoughnessTexture":
				{
					"index": 3
				}
			},
			"normalTexture":
			{
				"index": 4
			},
			"occlusionTexture":
			{
				"index": 5
			}
		},
		{
			"name": "MI_Rock_02",
			"pbrMetallicRoughness":
			{
				"baseColorTexture":
				{
					"index": 6
				},
				"metallicRoughnessTexture":
				{
					"index": 7
				}
			},
			"normalTexture":
			{
				"index": 8
			},
			"occlusionTexture":
			{
				"index": 9
			}
		},
		{
			"name": "MI_Rock_03",
			"pbrMetallicRoughness":
			{
				"baseColorTexture":
				{
					"index": 10
				},
				"metallicRoughnessTexture":
				{
					"index": 11
				}
			},
			"normalTexture":
			{
				"index": 12
			},
			"occlusionTexture":
			{
				"index": 13
			}
		},
		{
			"name": "MI_Rock_04",
			"pbrMetallicRoughness":
			{
				"baseColorTexture":
				{
					"index": 14
				},
				"metallicRoughnessTexture":
				{
					"index": 15
				}
			},
			"normalTexture":
			{
				"index": 16
			},
			"occlusionTexture":
			{
				"index": 17
			}
		},
		{
			"name": "MI_Rock_05",
			"pbrMetallicRoughness":
			{
				"baseColorTexture":
				{
					"index": 18
				},
				"metallicRoughnessTexture":
				{
					"index": 19
				}
			},
			"normalTexture":
			{
				"index": 20
			},
			"occlusionTexture":
			{
				"index": 21
			}
		},
		{
			"name": "MI_Rock_06",
			"pbrMetallicRoughness":
			{
				"baseColorTexture":
				{
					"index": 22
				},
				"metallicRoughnessTexture":
				{
					"index": 23
				}
			},
			"normalTexture":
			{
				"index": 24
			},
			"occlusionTexture":
			{
				"index": 25
			}
		},
		{
			"name": "MI_Rock_07",
			"pbrMetallicRoughness":
			{
				"baseColorTexture":
				{
					"index": 26
				},
				"metallicRoughnessTexture":
				{
					"index": 27
				}
			},
			"normalTexture":
			{
				"index": 28
			},
			"occlusionTexture":
			{
				"index": 29
			}
		}
	],
	"meshes": [
		{
			"name": "Floor",
			"primitives": [
				{
					"attributes":
					{
						"POSITION": 1,
						"NORMAL": 2,
						"TANGENT": 3,
						"TEXCOORD_0": 4,
						"TEXCOORD_1": 5
					},
					"indices": 0,
					"material": 0
				}
			]
		},
		{
			"name": "SM_Rock_01",
			"primitives": [
				{
					"attributes":
					{
						"POSITION": 7,
						"NORMAL": 8,
						"TANGENT": 9,
						"TEXCOORD_0": 10
					},
					"indices": 6,
					"material": 1
				}
			]
		},
		{
			"name": "SM_Rock_02",
			"primitives": [
				{
					"attributes":
					{
						"POSITION": 12,
						"NORMAL": 13,
						"TANGENT": 14,
						"TEXCOORD_0": 15
					},
					"indices": 11,
					"material": 2
				}
			]
		},
		{
			"name": "SM_Rock_03",
			"primitives": [
				{
					"attributes":
					{
						"POSITION": 17,
						"NORMAL": 18,
						"TANGENT": 19,
						"TEXCOORD_0": 20
					},
					"indices": 16,
					"material": 3
				}
			]
		},
		{
			"name": "SM_Rock_04",
			"primitives": [
				{
					"attributes":
					{
						"POSITION": 22,
						"NORMAL": 23,
						"TANGENT": 24,
						"TEXCOORD_0": 25
					},
					"indices": 21,
					"material": 4
				}
			]
		},
		{
			"name": "SM_Rock_05",
			"primitives": [
				{
					"attributes":
					{
						"POSITION": 27,
						"NORMAL": 28,
						"TANGENT": 29,
						"TEXCOORD_0": 30
					},
					"indices": 26,
					"material": 5
				}
			]
		},
		{
			"name": "SM_Rock_06",
			"primitives": [
				{
					"attributes":
					{
						"POSITION": 32,
						"NORMAL": 33,
						"TANGENT": 34,
						"TEXCOORD_0": 35
					},
					"indices": 31,
					"material": 6
				}
			]
		},
		{
			"name": "SM_Rock_07",
			"primitives": [
				{
					"attributes":
					{
						"POSITION": 37,
						"NORMAL": 38,
						"TANGENT": 39,
						"TEXCOORD_0": 40
					},
					"indices": 36,
					"material": 7
				}
			]
		}
	],
	"nodes": [
		{
			"name": "PlayerStart",
			"translation": [ 0, 0.919999957, 0 ]
		},
		{
			"name": "Floor",
			"translation": [ 0, -0.00499999989, 0 ],
			"scale": [ 8, 8, 8 ],
			"mesh": 0
		},
		{
			"name": "Metro1",
			"translation": [ 5.5, 0, -6.19999981 ]
		},
		{
			"name": "SM_Rock_01",
			"translation": [ -3.5, -0.399999976, 28.5999985 ],
			"rotation": [ 0.0216001943, 0.111123368, 0.189582482, 0.97531724 ],
			"mesh": 1
		},
		{
			"name": "SM_Rock_02",
			"translation": [ -5.4000001, -0.099999994, 27.5999985 ],
			"mesh": 2
		},
		{
			"name": "SM_Rock_03",
			"translation": [ -6, 1.29999995, 26.8999996 ],
			"mesh": 3
		},
		{
			"name": "SM_Rock_04",
			"translation": [ 3.39999986, 0, -7.39999962 ],
			"rotation": [ 0.139331281, 0.0493397936, 0.330140293, 0.932287395 ],
			"mesh": 4
		},
		{
			"name": "SM_Rock_05",
			"translation": [ 2.39999986, 0.799999952, -8.19999981 ],
			"mesh": 5
		},
		{
			"name": "SM_Rock_06",
			"translation": [ -0.099999994, 0, -9.59999943 ],
			"rotation": [ 0.094665736, -0.155714273, 0.0149935791, 0.983141243 ],
			"mesh": 6
		},
		{
			"name": "SM_Rock_07",
			"translation": [ 0.799999952, -0.5, -8 ],
			"mesh": 7
		},
		{
			"name": "SM_Rock_7",
			"translation": [ -1.29999995, 0, -12.6999998 ],
			"rotation": [ 0.0419141054, -0.118839756, 0.318067074, 0.939656138 ],
			"scale": [ 1, 1.27749991, 1.18499994 ],
			"mesh": 6
		},
		{
			"name": "SM_Rock_4",
			"translation": [ -6.0999999, 0, -12.0999994 ],
			"mesh": 3
		},
		{
			"name": "SM_Rock_5",
			"translation": [ -2.5, 0, -17.6000004 ],
			"rotation": [ -0, -0.594822824, 0, 0.803856969 ],
			"mesh": 4
		},
		{
			"name": "SM_Rock_3",
			"translation": [ -2.5, 1.5, -17.5 ],
			"scale": [ 0.5, 0.600000024, 0.800000012 ],
			"mesh": 2
		},
		{
			"name": "SM_Rock_2",
			"translation": [ -2.79999995, -0.5, -17.2999992 ],
			"rotation": [ 0.152366221, 0.342220157, 0.37711966, 0.84702462 ],
			"scale": [ 1, 1, 0.672500014 ],
			"mesh": 1
		},
		{
			"name": "SM_Rock_6",
			"translation": [ -7.5999999, 0, -17.3999996 ],
			"rotation": [ 0.452982485, 0.794933319, -0.262761772, 0.306339949 ],
			"mesh": 4
		},
		{
			"name": "SM_Rock_8",
			"translation": [ -2, 0, -22.8999996 ],
			"mesh": 7
		},
		{
			"name": "SM_Rock_9",
			"translation": [ -2, -0.799999952, -22.3999996 ],
			"mesh": 6
		},
		{
			"name": "SM_Rock_10",
			"translation": [ -2, 1.19999993, -22.1000004 ],
			"rotation": [ 0.10294044, 0.0181511771, 0.172696918, 0.979412854 ],
			"scale": [ 0.5, 0.5, 0.5 ],
			"mesh": 2
		},
		{
			"name": "SM_Rock_11",
			"translation": [ -7.0999999, 0, -21.3999996 ],
			"rotation": [ -0.433435977, 0.332131624, -0.0125955539, 0.837653399 ],
			"mesh": 4
		},
		{
			"name": "SM_Rock_12",
			"translation": [ -7.29999971, 0.899999976, -23.1999989 ],
			"rotation": [ 0.329769999, -0.239778519, -0.270095229, 0.872242391 ],
			"mesh": 1
		},
		{
			"name": "SM_Rock_13",
			"translation": [ -1.5, 1.69999993, -23.6000004 ],
			"rotation": [ 0.329769999, -0.239778519, -0.270095229, 0.872242391 ],
			"mesh": 1
		},
		{
			"name": "SM_Rock_41",
			"translation": [ -140.300003, -0.5, -43.5 ],
			"rotation": [ -0, -0.99619472, 0, 0.0871557444 ],
			"mesh": 4
		},
		{
			"name": "SM_Rock_42",
			"translation": [ -140.300003, 0.699999988, -43.3999977 ],
			"scale": [ 0.5, 0.600000024, 0.800000012 ],
			"mesh": 2
		},
		{
			"name": "SM_Rock_43",
			"translation": [ -140.599991, -0.5, -43.2000008 ],
			"rotation": [ 0.152366221, 0.342220157, 0.37711966, 0.84702462 ],
			"scale": [ 1, 1, 0.672500014 ],
			"mesh": 1
		}
	],
	"samplers": [
		{
			"minFilter": 9987,
			"magFilter": 9729
		}
	],
	"scenes": [
		{
			"name": "Subway",
			"nodes": [ 0, 1, 2, 3, 4, 5, 6, 7, 8, 9, 10, 11, 12, 13, 14, 15, 16, 17, 18, 19, 20, 21, 22, 23, 24 ]
		}
	],
	"textures": [
		{
			"name": "MI_ProcGrid_Floor_BaseColor",
			"sampler": 0,
			"source": 0
		},
		{
			"name": "MI_ProcGrid_Floor_MetallicRoughness",
			"sampler": 0,
			"source": 1
		},
		{
			"name": "MI_Rock_01_BaseColor",
			"sampler": 0,
			"source": 2
		},
		{
			"name": "MI_Rock_01_MetallicRoughness",
			"sampler": 0,
			"source": 3
		},
		{
			"name": "MI_Rock_01_Normal",
			"sampler": 0,
			"source": 4
		},
		{
			"name": "T_Rock_01_ORM",
			"sampler": 0,
			"source": 23
		},
		{
			"name": "MI_Rock_02_BaseColor",
			"sampler": 0,
			"source": 5
		},
		{
			"name": "MI_Rock_02_MetallicRoughness",
			"sampler": 0,
			"source": 6
		},
		{
			"name": "MI_Rock_02_Normal",
			"sampler": 0,
			"source": 7
		},
		{
			"name": "T_Rock_02_ORM",
			"sampler": 0,
			"source": 24
		},
		{
			"name": "MI_Rock_03_BaseColor",
			"sampler": 0,
			"source": 8
		},
		{
			"name": "MI_Rock_03_MetallicRoughness",
			"sampler": 0,
			"source": 9
		},
		{
			"name": "MI_Rock_03_Normal",
			"sampler": 0,
			"source": 10
		},
		{
			"name": "T_Rock_03_ORM",
			"sampler": 0,
			"source": 25
		},
		{
			"name": "MI_Rock_04_BaseColor",
			"sampler": 0,
			"source": 11
		},
		{
			"name": "MI_Rock_04_MetallicRoughness",
			"sampler": 0,
			"source": 12
		},
		{
			"name": "MI_Rock_04_Normal",
			"sampler": 0,
			"source": 13
		},
		{
			"name": "T_Rock_04_ORM",
			"sampler": 0,
			"source": 26
		},
		{
			"name": "MI_Rock_05_BaseColor",
			"sampler": 0,
			"source": 14
		},
		{
			"name": "MI_Rock_05_MetallicRoughness",
			"sampler": 0,
			"source": 15
		},
		{
			"name": "MI_Rock_05_Normal",
			"sampler": 0,
			"source": 16
		},
		{
			"name": "T_Rock_05_ORM",
			"sampler": 0,
			"source": 27
		},
		{
			"name": "MI_Rock_06_BaseColor",
			"sampler": 0,
			"source": 17
		},
		{
			"name": "MI_Rock_06_MetallicRoughness",
			"sampler": 0,
			"source": 18
		},
		{
			"name": "MI_Rock_06_Normal",
			"sampler": 0,
			"source": 19
		},
		{
			"name": "T_Rock_06_ORM",
			"sampler": 0,
			"source": 28
		},
		{
			"name": "MI_Rock_07_BaseColor",
			"sampler": 0,
			"source": 20
		},
		{
			"name": "MI_Rock_07_MetallicRoughness",
			"sampler": 0,
			"source": 21
		},
		{
			"name": "MI_Rock_07_Normal",
			"sampler": 0,
			"source": 22
		},
		{
			"name": "T_Rock_07_ORM",
			"sampler": 0,
			"source": 29
		}
	],
	"extensionsUsed": [
		"KHR_texture_transform",
		"KHR_materials_specular"
	]
}